<mxfile host="Electron" modified="2023-09-24T15:16:18.221Z" agent="Mozilla/5.0 (Windows NT 10.0; Win64; x64) AppleWebKit/537.36 (KHTML, like Gecko) draw.io/21.7.5 Chrome/114.0.5735.289 Electron/25.8.1 Safari/537.36" etag="qWaoIKlJifEm8USd5GJp" version="21.7.5" type="device">
  <diagram name="Страница — 1" id="svp2YQaz2aHfOG72js31">
    <mxGraphModel dx="872" dy="827" grid="0" gridSize="10" guides="1" tooltips="1" connect="1" arrows="1" fold="1" page="0" pageScale="1" pageWidth="827" pageHeight="1169" math="0" shadow="0">
      <root>
        <mxCell id="0" />
        <mxCell id="1" parent="0" />
        <mxCell id="5e5Drool1029RDPdJJ9p-1" value="1" style="ellipse;whiteSpace=wrap;html=1;fontFamily=Helvetica;fontSize=16;" parent="1" vertex="1">
          <mxGeometry x="-42" y="106" width="24" height="24" as="geometry" />
        </mxCell>
        <mxCell id="5e5Drool1029RDPdJJ9p-2" value="2" style="ellipse;whiteSpace=wrap;html=1;fontFamily=Helvetica;fontSize=16;" parent="1" vertex="1">
          <mxGeometry x="95" y="137" width="24" height="24" as="geometry" />
        </mxCell>
        <mxCell id="5e5Drool1029RDPdJJ9p-5" value="5" style="ellipse;whiteSpace=wrap;html=1;fontFamily=Helvetica;fontSize=16;" parent="1" vertex="1">
          <mxGeometry x="61" y="48" width="24" height="24" as="geometry" />
        </mxCell>
        <mxCell id="5e5Drool1029RDPdJJ9p-10" value="b/1" style="edgeStyle=none;shape=connector;rounded=0;orthogonalLoop=1;jettySize=auto;html=1;labelBackgroundColor=default;fontFamily=Helvetica;fontSize=16;fontColor=default;endArrow=blockThin;endFill=1;" parent="1" source="5e5Drool1029RDPdJJ9p-1" target="5e5Drool1029RDPdJJ9p-5" edge="1">
          <mxGeometry x="0.0054" relative="1" as="geometry">
            <mxPoint x="38" y="135" as="sourcePoint" />
            <mxPoint x="132" y="222" as="targetPoint" />
            <Array as="points">
              <mxPoint x="-17" y="61" />
            </Array>
            <mxPoint as="offset" />
          </mxGeometry>
        </mxCell>
        <mxCell id="5e5Drool1029RDPdJJ9p-15" style="edgeStyle=none;shape=connector;rounded=0;orthogonalLoop=1;jettySize=auto;html=1;labelBackgroundColor=default;fontFamily=Helvetica;fontSize=16;fontColor=default;endArrow=blockThin;endFill=1;" parent="1" target="5e5Drool1029RDPdJJ9p-1" edge="1">
          <mxGeometry relative="1" as="geometry">
            <mxPoint x="-65" y="88" as="sourcePoint" />
            <mxPoint x="-19.999655314275728" y="113.72591171915622" as="targetPoint" />
          </mxGeometry>
        </mxCell>
        <mxCell id="Qa4QHLr7aCHY2gj8fnbk-11" value="a/0" style="edgeStyle=none;shape=connector;rounded=0;orthogonalLoop=1;jettySize=auto;html=1;labelBackgroundColor=default;fontFamily=Helvetica;fontSize=16;fontColor=default;endArrow=blockThin;endFill=1;" parent="1" source="5e5Drool1029RDPdJJ9p-1" target="5e5Drool1029RDPdJJ9p-2" edge="1">
          <mxGeometry relative="1" as="geometry">
            <mxPoint x="57.84" y="264.09000000000003" as="sourcePoint" />
            <mxPoint x="128.84" y="230.09" as="targetPoint" />
            <Array as="points">
              <mxPoint x="45" y="128" />
            </Array>
          </mxGeometry>
        </mxCell>
        <mxCell id="Qa4QHLr7aCHY2gj8fnbk-20" value="3" style="ellipse;whiteSpace=wrap;html=1;fontFamily=Helvetica;fontSize=16;" parent="1" vertex="1">
          <mxGeometry x="135" y="220" width="24" height="24" as="geometry" />
        </mxCell>
        <mxCell id="Qa4QHLr7aCHY2gj8fnbk-21" value="a/1" style="edgeStyle=none;shape=connector;rounded=0;orthogonalLoop=1;jettySize=auto;html=1;labelBackgroundColor=default;fontFamily=Helvetica;fontSize=16;fontColor=default;endArrow=blockThin;endFill=1;" parent="1" source="5e5Drool1029RDPdJJ9p-2" target="Qa4QHLr7aCHY2gj8fnbk-20" edge="1">
          <mxGeometry relative="1" as="geometry">
            <mxPoint x="152.51" y="161.49" as="sourcePoint" />
            <mxPoint x="202.51" y="111.49" as="targetPoint" />
            <Array as="points" />
          </mxGeometry>
        </mxCell>
        <mxCell id="Qa4QHLr7aCHY2gj8fnbk-24" value="a/0" style="edgeStyle=none;shape=connector;rounded=0;orthogonalLoop=1;jettySize=auto;html=1;labelBackgroundColor=default;fontFamily=Helvetica;fontSize=16;fontColor=default;endArrow=blockThin;endFill=1;" parent="1" source="5e5Drool1029RDPdJJ9p-5" target="5e5Drool1029RDPdJJ9p-2" edge="1">
          <mxGeometry relative="1" as="geometry">
            <mxPoint x="86" y="102" as="sourcePoint" />
            <mxPoint x="177" y="102" as="targetPoint" />
            <Array as="points" />
          </mxGeometry>
        </mxCell>
        <mxCell id="Qa4QHLr7aCHY2gj8fnbk-25" value="4" style="ellipse;whiteSpace=wrap;html=1;fontFamily=Helvetica;fontSize=16;" parent="1" vertex="1">
          <mxGeometry x="37" y="259" width="24" height="24" as="geometry" />
        </mxCell>
        <mxCell id="Qa4QHLr7aCHY2gj8fnbk-29" value="a/0" style="edgeStyle=none;shape=connector;rounded=0;orthogonalLoop=1;jettySize=auto;html=1;labelBackgroundColor=default;fontFamily=Helvetica;fontSize=16;fontColor=default;endArrow=blockThin;endFill=1;" parent="1" source="Qa4QHLr7aCHY2gj8fnbk-20" target="Qa4QHLr7aCHY2gj8fnbk-25" edge="1">
          <mxGeometry relative="1" as="geometry">
            <mxPoint x="75.84" y="201.49" as="sourcePoint" />
            <mxPoint x="105.84" y="262.49" as="targetPoint" />
            <Array as="points" />
          </mxGeometry>
        </mxCell>
        <mxCell id="Qa4QHLr7aCHY2gj8fnbk-30" value="6" style="ellipse;whiteSpace=wrap;html=1;fontFamily=Helvetica;fontSize=16;" parent="1" vertex="1">
          <mxGeometry x="-66" y="173" width="24" height="24" as="geometry" />
        </mxCell>
        <mxCell id="Qa4QHLr7aCHY2gj8fnbk-31" value="b/1" style="edgeStyle=none;shape=connector;rounded=0;orthogonalLoop=1;jettySize=auto;html=1;labelBackgroundColor=default;fontFamily=Helvetica;fontSize=16;fontColor=default;endArrow=blockThin;endFill=1;" parent="1" source="Qa4QHLr7aCHY2gj8fnbk-30" target="5e5Drool1029RDPdJJ9p-1" edge="1">
          <mxGeometry relative="1" as="geometry">
            <mxPoint x="65.09" y="191.57" as="sourcePoint" />
            <mxPoint x="-8.909999999999997" y="201.57" as="targetPoint" />
            <Array as="points" />
          </mxGeometry>
        </mxCell>
        <mxCell id="Qa4QHLr7aCHY2gj8fnbk-32" value="b/1" style="edgeStyle=none;shape=connector;rounded=0;orthogonalLoop=1;jettySize=auto;html=1;labelBackgroundColor=default;fontFamily=Helvetica;fontSize=16;fontColor=default;endArrow=blockThin;endFill=1;" parent="1" source="5e5Drool1029RDPdJJ9p-2" target="5e5Drool1029RDPdJJ9p-1" edge="1">
          <mxGeometry relative="1" as="geometry">
            <mxPoint x="59" y="192" as="sourcePoint" />
            <mxPoint x="33.96" y="166.4" as="targetPoint" />
            <Array as="points">
              <mxPoint x="50" y="162" />
            </Array>
          </mxGeometry>
        </mxCell>
        <mxCell id="Qa4QHLr7aCHY2gj8fnbk-33" value="b/1" style="edgeStyle=none;shape=connector;rounded=0;orthogonalLoop=1;jettySize=auto;html=1;labelBackgroundColor=default;fontFamily=Helvetica;fontSize=16;fontColor=default;endArrow=blockThin;endFill=1;" parent="1" source="Qa4QHLr7aCHY2gj8fnbk-20" target="5e5Drool1029RDPdJJ9p-5" edge="1">
          <mxGeometry relative="1" as="geometry">
            <mxPoint x="221.26999999999998" y="129.45" as="sourcePoint" />
            <mxPoint x="130.26999999999998" y="129.45" as="targetPoint" />
            <Array as="points">
              <mxPoint x="155" y="141" />
            </Array>
          </mxGeometry>
        </mxCell>
        <mxCell id="Qa4QHLr7aCHY2gj8fnbk-34" value="b/1" style="edgeStyle=none;shape=connector;rounded=0;orthogonalLoop=1;jettySize=auto;html=1;labelBackgroundColor=default;fontFamily=Helvetica;fontSize=16;fontColor=default;endArrow=blockThin;endFill=1;" parent="1" source="5e5Drool1029RDPdJJ9p-5" target="5e5Drool1029RDPdJJ9p-5" edge="1">
          <mxGeometry relative="1" as="geometry">
            <mxPoint x="84.71000000000001" y="189.45" as="sourcePoint" />
            <mxPoint x="18" y="68" as="targetPoint" />
            <Array as="points">
              <mxPoint x="60" y="106" />
              <mxPoint x="30" y="75" />
            </Array>
          </mxGeometry>
        </mxCell>
        <mxCell id="Qa4QHLr7aCHY2gj8fnbk-36" value="a/1" style="edgeStyle=none;shape=connector;rounded=0;orthogonalLoop=1;jettySize=auto;html=1;labelBackgroundColor=default;fontFamily=Helvetica;fontSize=16;fontColor=default;endArrow=blockThin;endFill=1;" parent="1" source="Qa4QHLr7aCHY2gj8fnbk-30" target="Qa4QHLr7aCHY2gj8fnbk-20" edge="1">
          <mxGeometry x="0.0024" relative="1" as="geometry">
            <mxPoint x="-9.159999999999997" y="166.17" as="sourcePoint" />
            <mxPoint x="20.840000000000003" y="227.17" as="targetPoint" />
            <Array as="points" />
            <mxPoint as="offset" />
          </mxGeometry>
        </mxCell>
        <mxCell id="Qa4QHLr7aCHY2gj8fnbk-37" value="b/0" style="edgeStyle=none;shape=connector;rounded=0;orthogonalLoop=1;jettySize=auto;html=1;labelBackgroundColor=default;fontFamily=Helvetica;fontSize=16;fontColor=default;endArrow=blockThin;endFill=1;" parent="1" source="Qa4QHLr7aCHY2gj8fnbk-25" target="Qa4QHLr7aCHY2gj8fnbk-25" edge="1">
          <mxGeometry relative="1" as="geometry">
            <mxPoint x="9" y="245.07" as="sourcePoint" />
            <mxPoint x="1" y="237.07" as="targetPoint" />
            <Array as="points">
              <mxPoint x="16" y="313" />
              <mxPoint x="-2" y="268" />
            </Array>
          </mxGeometry>
        </mxCell>
        <mxCell id="Qa4QHLr7aCHY2gj8fnbk-38" value="a/1" style="edgeStyle=none;shape=connector;rounded=0;orthogonalLoop=1;jettySize=auto;html=1;labelBackgroundColor=default;fontFamily=Helvetica;fontSize=16;fontColor=default;endArrow=blockThin;endFill=1;" parent="1" source="Qa4QHLr7aCHY2gj8fnbk-25" target="Qa4QHLr7aCHY2gj8fnbk-30" edge="1">
          <mxGeometry relative="1" as="geometry">
            <mxPoint x="-92.31" y="206.28" as="sourcePoint" />
            <mxPoint x="84.69" y="247.28" as="targetPoint" />
            <Array as="points" />
          </mxGeometry>
        </mxCell>
      </root>
    </mxGraphModel>
  </diagram>
</mxfile>
